<svg xmlns="http://www.w3.org/2000/svg" width="18.491" height="17.277" viewBox="0 0 18.491 17.277">
  <path id="Icon_metro-cancel" data-name="Icon metro-cancel" d="M11.816,1.928c-5.106,0-9.245,3.867-9.245,8.638S6.71,19.2,11.816,19.2s9.245-3.868,9.245-8.638-4.139-8.638-9.245-8.638Zm0,15.657A7.278,7.278,0,0,1,4.3,10.566a7.278,7.278,0,0,1,7.512-7.019,7.278,7.278,0,0,1,7.512,7.019A7.278,7.278,0,0,1,11.816,17.585ZM14.705,6.247l-2.889,2.7-2.889-2.7L7.193,7.867l2.889,2.7-2.889,2.7,1.733,1.62,2.889-2.7,2.889,2.7,1.733-1.62-2.889-2.7,2.889-2.7Z" transform="translate(-2.571 -1.928)" fill="#d24444"/>
</svg>
