<svg xmlns="http://www.w3.org/2000/svg" xmlns:xlink="http://www.w3.org/1999/xlink" width="63.807" height="100.985" viewBox="0 0 63.807 100.985">
  <defs>
    <filter id="Icon_awesome-tree" x="0" y="0" width="63.807" height="100.985" filterUnits="userSpaceOnUse">
      <feOffset dy="3" input="SourceAlpha"/>
      <feGaussianBlur stdDeviation="3" result="blur"/>
      <feFlood flood-opacity="0.161"/>
      <feComposite operator="in" in2="blur"/>
      <feComposite in="SourceGraphic"/>
    </filter>
  </defs>
  <g transform="matrix(1, 0, 0, 1, 0, 0)" filter="url(#Icon_awesome-tree)">
    <path id="Icon_awesome-tree-2" data-name="Icon awesome-tree" d="M43.09,59.866l-9.1-14.313h3.489a2.672,2.672,0,0,0,2.367-2.066,4.591,4.591,0,0,0-.374-3.8l-8.9-14.376h3.291a2.7,2.7,0,0,0,2.376-2.153,4.6,4.6,0,0,0-.483-3.809L23.2.765a1.535,1.535,0,0,0-2.656,0L7.98,19.346A4.6,4.6,0,0,0,7.5,23.155a2.706,2.706,0,0,0,2.377,2.153h3.291l-8.9,14.379a4.6,4.6,0,0,0-.372,3.8,2.671,2.671,0,0,0,2.367,2.064H9.748L.648,59.866A4.591,4.591,0,0,0,.242,63.7a2.73,2.73,0,0,0,2.393,2.1H18.224v3.867l-3.45,7.655c-.606,1.683.276,3.663,1.63,3.663h10.93c1.354,0,2.236-1.98,1.63-3.663l-3.45-7.655V65.8H41.1A2.73,2.73,0,0,0,43.5,63.7,4.591,4.591,0,0,0,43.09,59.866Z" transform="translate(10.03 7)" stroke="#21cea6" stroke-width="2"/>
  </g>
</svg>
